<?xml version="1.0" encoding="utf-8"?>
<!-- Generator: Fusion 360, Shaper Origin Export Add-In, Version 1.4.1  -->
<svg enable-background="new 0 0 11.65 6.8" height="6.8cm" shaper:fusionaddin="version:1.4.1" version="1.1" viewBox="0 0 11.65 6.8" width="11.65cm" x="0cm" xml:space="preserve" xmlns="http://www.w3.org/2000/svg" xmlns:shaper="http://www.shapertools.com/namespaces/shaper" xmlns:xlink="http://www.w3.org/1999/xlink" y="0cm"><path d="M-3.75,5.7746794 A1.2,1.2 125.6853347 0,1 -3.75,3.8253206 L-3.75,2.8 -0.1944272,2.8 A1.2,1.2 138.1896853 0,1 0,1.0253206 L0,0 6.9,0 6.9,1.0253206 A1.2,1.2 305.6853347 0,1 6.9,2.9746794 L6.9,4 3.3444272,4 A1.2,1.2 318.1896853 0,1 3.15,5.7746794 L3.15,6.8 -3.75,6.8 -3.75,5.7746794z" fill="rgb(0,0,0)" shaper:cutDepth="0" shaper:pathType="exterior" transform="matrix(1,0,0,-1,4.25,6.8)" vector-effect="non-scaling-stroke" /><path d="M-3.0612008,6.2554839 L-3.0612008,6.2554839 -3.0102975,6.2757476 -3.0102975,6.2757476 -2.9874703,6.3299468 -3.1322457,6.3299468 -3.1322457,6.3299468 -3.1156442,6.2808745 -3.1156442,6.2808745 -3.0914167,6.2617761 -3.0612008,6.2554839z" fill="rgb(0,0,0)" shaper:cutDepth="0" shaper:pathType="exterior" transform="matrix(1,0,0,-1,4.25,6.8)" vector-effect="non-scaling-stroke" /><path d="M-2.6437203,6.2032378 L-2.6437203,6.4844878 -2.5983102,6.4844878 -2.5983102,6.1265776 -2.6468942,6.1265776 -2.8348825,6.4075835 -2.8348825,6.1265776 -2.8802926,6.1265776 -2.8802926,6.4844878 -2.8317086,6.4844878 -2.6437203,6.2032378z" fill="rgb(255,255,255)" shaper:cutDepth="0" shaper:pathType="interior" stroke="rgb(0,0,0)" stroke-width="2" transform="matrix(1,0,0,-1,4.25,6.8)" vector-effect="non-scaling-stroke" /><path d="M-3.2758004,6.3487456 L-3.2758004,6.4844878 -3.2318551,6.4844878 -3.2318551,6.2252104 -3.2714059,6.2252104 -3.2714059,6.2645171 -3.2714059,6.2645171 -3.29936,6.2281401 -3.29936,6.2281401 -3.3275582,6.2193511 -3.3275582,6.2193511 -3.3727242,6.2335112 -3.3575875,6.2742827 -3.3575875,6.2742827 -3.325361,6.2647612 -3.325361,6.2647612 -3.2994821,6.2734282 -3.2994821,6.2734282 -3.2831246,6.2974761 -3.2831246,6.2974761 -3.2758004,6.3487456z" fill="rgb(255,255,255)" shaper:cutDepth="0" shaper:pathType="interior" stroke="rgb(0,0,0)" stroke-width="2" transform="matrix(1,0,0,-1,4.25,6.8)" vector-effect="non-scaling-stroke" /><path d="M-3.0633981,6.4542144 L-3.0633981,6.4542144 -3.1046578,6.441519 -3.1046578,6.441519 -3.1317575,6.4009917 -3.1771676,6.4066069 -3.1771676,6.4066069 -3.1625173,6.4409139 -3.1373727,6.4683745 -3.1373727,6.4683745 -3.1021457,6.4855012 -3.0631539,6.4903472 -3.0631539,6.4903472 -3.0142233,6.4824024 -2.972944,6.455313 -2.972944,6.455313 -2.9466846,6.4095914 -2.9396188,6.3570464 -2.9396188,6.3570464 -2.946705,6.3028642 -2.9733102,6.2554839 -2.9733102,6.2554839 -3.0130416,6.2279532 -3.0607125,6.2193511 -3.0607125,6.2193511 -3.1070814,6.2278354 -3.1456735,6.2547515 -3.1456735,6.2547515 -3.171711,6.3012325 -3.1786325,6.3543608 -3.1786325,6.3543608 -3.1783883,6.3660796 -2.9850289,6.3660796 -2.9850289,6.3660796 -2.9912548,6.4010604 -3.0091989,6.4315093 -3.0091989,6.4315093 -3.0338631,6.4486432 -3.0633981,6.4542144z" fill="rgb(255,255,255)" shaper:cutDepth="0" shaper:pathType="interior" stroke="rgb(0,0,0)" stroke-width="2" transform="matrix(1,0,0,-1,4.25,6.8)" vector-effect="non-scaling-stroke" /></svg>