<?xml version="1.0" encoding="UTF-8" standalone="no"?>
<!-- Created with Inkscape (http://www.inkscape.org/) -->

<svg
   xmlns:shaper="http://www.shapertools.com/namespaces/shaper"
   xmlns:dc="http://purl.org/dc/elements/1.1/"
   xmlns:cc="http://creativecommons.org/ns#"
   xmlns:rdf="http://www.w3.org/1999/02/22-rdf-syntax-ns#"
   xmlns:svg="http://www.w3.org/2000/svg"
   xmlns="http://www.w3.org/2000/svg"
   xmlns:sodipodi="http://sodipodi.sourceforge.net/DTD/sodipodi-0.dtd"
   xmlns:inkscape="http://www.inkscape.org/namespaces/inkscape"
   version="1.1"
   width="1220mm"
   height="610mm"
   id="svg2"
   inkscape:version="0.92.2 (5c3e80d, 2017-08-06)"
   sodipodi:docname="Result1.svg"
   viewBox="0 0 1220 610">
  <sodipodi:namedview
     pagecolor="#ffffff"
     bordercolor="#666666"
     borderopacity="1"
     objecttolerance="10"
     gridtolerance="10"
     guidetolerance="10"
     inkscape:pageopacity="0"
     inkscape:pageshadow="2"
     inkscape:window-width="2560"
     inkscape:window-height="1537"
     id="namedview91444"
     showgrid="false"
     inkscape:zoom="0.99993735"
     inkscape:cx="1184.0596"
     inkscape:cy="1103.5886"
     inkscape:window-x="1432"
     inkscape:window-y="757"
     inkscape:window-maximized="1"
     inkscape:current-layer="svg2"
     units="mm"
     inkscape:document-units="mm" />
  <defs
     id="defs4">
    <symbol
       id="*PAPER_SPACE" />
    <symbol
       id="*MODEL_SPACE" />
    <pattern
       height="8"
       width="8"
       patternUnits="userSpaceOnUse"
       y="0"
       x="0"
       id="Hatch">
      <path
         linecap="square"
         stroke="#000000"
         stroke-width="0.25"
         d="M8 4 l-4,4"
         id="path617966" />
      <path
         linecap="square"
         stroke="#000000"
         stroke-width="0.25"
         d="M6 2 l-4,4"
         id="path617968" />
      <path
         linecap="square"
         stroke="#000000"
         stroke-width="0.25"
         d="M4 0 l-4,4"
         id="path617970" />
    </pattern>
    <marker
       refX="0"
       refY="0"
       orient="auto"
       id="DistanceX"
       style="overflow:visible">
      <path
         d="M 3,-3 -3,3 M 0,-5 V 5"
         id="path617963"
         style="stroke:#000000;stroke-width:0.5"
         inkscape:connector-curvature="0" />
    </marker>
    <symbol
       id="$PAPER_SPACE" />
    <symbol
       id="$MODEL_SPACE" />
    <pattern
       id="Hatch-0"
       x="0"
       y="0"
       patternUnits="userSpaceOnUse"
       width="8"
       height="8">
      <path
         id="path73478"
         d="M8 4 l-4,4"
         stroke-width="0.25"
         stroke="#000000"
         linecap="square" />
      <path
         id="path73480"
         d="M6 2 l-4,4"
         stroke-width="0.25"
         stroke="#000000"
         linecap="square" />
      <path
         id="path73482"
         d="M4 0 l-4,4"
         stroke-width="0.25"
         stroke="#000000"
         linecap="square" />
    </pattern>
    <marker
       refX="0"
       refY="0"
       orient="auto"
       id="DistanceX-5"
       style="overflow:visible">
      <path
         d="M 3,-3 -3,3 M 0,-5 V 5"
         id="path73475"
         style="stroke:#000000;stroke-width:0.5"
         inkscape:connector-curvature="0" />
    </marker>
    <symbol
       id="$PAPER_SPACE-1" />
    <symbol
       id="$MODEL_SPACE-0" />
    <pattern
       height="8"
       width="8"
       patternUnits="userSpaceOnUse"
       y="0"
       x="0"
       id="Hatch-1">
      <path
         linecap="square"
         stroke="#000000"
         stroke-width="0.25"
         d="M8 4 l-4,4"
         id="path44235" />
      <path
         linecap="square"
         stroke="#000000"
         stroke-width="0.25"
         d="M6 2 l-4,4"
         id="path44237" />
      <path
         linecap="square"
         stroke="#000000"
         stroke-width="0.25"
         d="M4 0 l-4,4"
         id="path44239" />
    </pattern>
    <marker
       refX="0"
       refY="0"
       orient="auto"
       id="DistanceX-1"
       style="overflow:visible">
      <path
         d="M 3,-3 -3,3 M 0,-5 V 5"
         id="path44232"
         style="stroke:#000000;stroke-width:0.5"
         inkscape:connector-curvature="0" />
    </marker>
    <symbol
       id="$PAPER_SPACE-5" />
    <symbol
       id="$MODEL_SPACE-4" />
    <pattern
       id="Hatch-04"
       x="0"
       y="0"
       patternUnits="userSpaceOnUse"
       width="8"
       height="8">
      <path
         id="path101669"
         d="M8 4 l-4,4"
         stroke-width="0.25"
         stroke="#000000"
         linecap="square" />
      <path
         id="path101671"
         d="M6 2 l-4,4"
         stroke-width="0.25"
         stroke="#000000"
         linecap="square" />
      <path
         id="path101673"
         d="M4 0 l-4,4"
         stroke-width="0.25"
         stroke="#000000"
         linecap="square" />
    </pattern>
    <marker
       orient="auto"
       id="DistanceX-2"
       style="overflow:visible"
       refX="0"
       refY="0">
      <path
         id="path101666"
         d="M 3,-3 -3,3 M 0,-5 V 5"
         style="stroke:#000000;stroke-width:0.5"
         inkscape:connector-curvature="0" />
    </marker>
    <symbol
       id="*PAPER_SPACE-9" />
    <symbol
       id="*MODEL_SPACE-2" />
    <pattern
       id="Hatch-9"
       x="0"
       y="0"
       patternUnits="userSpaceOnUse"
       width="8"
       height="8">
      <path
         id="path145873"
         d="M8 4 l-4,4"
         stroke-width="0.25"
         stroke="#000000"
         linecap="square" />
      <path
         id="path145875"
         d="M6 2 l-4,4"
         stroke-width="0.25"
         stroke="#000000"
         linecap="square" />
      <path
         id="path145877"
         d="M4 0 l-4,4"
         stroke-width="0.25"
         stroke="#000000"
         linecap="square" />
    </pattern>
    <marker
       orient="auto"
       id="DistanceX-24"
       style="overflow:visible"
       refX="0"
       refY="0">
      <path
         id="path145870"
         d="M 3,-3 -3,3 M 0,-5 V 5"
         style="stroke:#000000;stroke-width:0.5"
         inkscape:connector-curvature="0" />
    </marker>
    <symbol
       id="$PAPER_SPACE-4" />
    <symbol
       id="$MODEL_SPACE-1" />
    <pattern
       id="Hatch-8"
       x="0"
       y="0"
       patternUnits="userSpaceOnUse"
       width="8"
       height="8">
      <path
         id="path1947"
         d="M8 4 l-4,4"
         stroke-width="0.25"
         stroke="#000000"
         linecap="square" />
      <path
         id="path1949"
         d="M6 2 l-4,4"
         stroke-width="0.25"
         stroke="#000000"
         linecap="square" />
      <path
         id="path1951"
         d="M4 0 l-4,4"
         stroke-width="0.25"
         stroke="#000000"
         linecap="square" />
    </pattern>
    <marker
       orient="auto"
       id="DistanceX-55"
       style="overflow:visible"
       refX="0"
       refY="0">
      <path
         id="path1944"
         d="M 3,-3 -3,3 M 0,-5 V 5"
         style="stroke:#000000;stroke-width:0.5"
         inkscape:connector-curvature="0" />
    </marker>
    <symbol
       id="*PAPER_SPACE-7" />
    <symbol
       id="*MODEL_SPACE-0" />
    <pattern
       id="Hatch-82"
       x="0"
       y="0"
       patternUnits="userSpaceOnUse"
       width="8"
       height="8">
      <path
         id="path1175"
         d="M8 4 l-4,4"
         stroke-width="0.25"
         stroke="#000000"
         linecap="square" />
      <path
         id="path1177"
         d="M6 2 l-4,4"
         stroke-width="0.25"
         stroke="#000000"
         linecap="square" />
      <path
         id="path1179"
         d="M4 0 l-4,4"
         stroke-width="0.25"
         stroke="#000000"
         linecap="square" />
    </pattern>
    <marker
       orient="auto"
       id="DistanceX-29"
       style="overflow:visible"
       refX="0"
       refY="0">
      <path
         id="path1172"
         d="M 3,-3 -3,3 M 0,-5 V 5"
         style="stroke:#000000;stroke-width:0.5"
         inkscape:connector-curvature="0" />
    </marker>
    <symbol
       id="*PAPER_SPACE-76" />
    <symbol
       id="*MODEL_SPACE-5" />
    <pattern
       id="Hatch-3"
       x="0"
       y="0"
       patternUnits="userSpaceOnUse"
       width="8"
       height="8">
      <path
         id="path1809-9"
         d="M8 4 l-4,4"
         stroke-width="0.25"
         stroke="#000000"
         linecap="square" />
      <path
         id="path1811-8"
         d="M6 2 l-4,4"
         stroke-width="0.25"
         stroke="#000000"
         linecap="square" />
      <path
         id="path1813-6"
         d="M4 0 l-4,4"
         stroke-width="0.25"
         stroke="#000000"
         linecap="square" />
    </pattern>
    <marker
       orient="auto"
       id="DistanceX-0"
       style="overflow:visible"
       refX="0"
       refY="0">
      <path
         id="path1806"
         d="M 3,-3 -3,3 M 0,-5 V 5"
         style="stroke:#000000;stroke-width:0.5"
         inkscape:connector-curvature="0" />
    </marker>
    <symbol
       id="*PAPER_SPACE-6" />
    <symbol
       id="*MODEL_SPACE-7" />
    <pattern
       id="Hatch-5"
       x="0"
       y="0"
       patternUnits="userSpaceOnUse"
       width="8"
       height="8">
      <path
         id="path1851"
         d="M8 4 l-4,4"
         stroke-width="0.25"
         stroke="#000000"
         linecap="square" />
      <path
         id="path1853"
         d="M6 2 l-4,4"
         stroke-width="0.25"
         stroke="#000000"
         linecap="square" />
      <path
         id="path1855"
         d="M4 0 l-4,4"
         stroke-width="0.25"
         stroke="#000000"
         linecap="square" />
    </pattern>
    <marker
       orient="auto"
       id="DistanceX-6"
       style="overflow:visible"
       refX="0"
       refY="0">
      <path
         id="path1848"
         d="M 3,-3 -3,3 M 0,-5 V 5"
         style="stroke:#000000;stroke-width:0.5"
         inkscape:connector-curvature="0" />
    </marker>
    <symbol
       id="*PAPER_SPACE-0" />
    <symbol
       id="*MODEL_SPACE-27" />
    <pattern
       id="Hatch-6"
       x="0"
       y="0"
       patternUnits="userSpaceOnUse"
       width="8"
       height="8">
      <path
         id="path1858"
         d="M8 4 l-4,4"
         stroke-width="0.25"
         stroke="#000000"
         linecap="square" />
      <path
         id="path1860"
         d="M6 2 l-4,4"
         stroke-width="0.25"
         stroke="#000000"
         linecap="square" />
      <path
         id="path1862"
         d="M4 0 l-4,4"
         stroke-width="0.25"
         stroke="#000000"
         linecap="square" />
    </pattern>
    <marker
       orient="auto"
       id="DistanceX-65"
       style="overflow:visible"
       refX="0"
       refY="0">
      <path
         id="path1855-7"
         d="M 3,-3 -3,3 M 0,-5 V 5"
         style="stroke:#000000;stroke-width:0.5"
         inkscape:connector-curvature="0" />
    </marker>
  </defs>
  <metadata
     id="metadata7">
    <rdf:RDF>
      <cc:Work
         rdf:about="">
        <dc:format>image/svg+xml</dc:format>
        <dc:type
           rdf:resource="http://purl.org/dc/dcmitype/StillImage" />
        <dc:title />
      </cc:Work>
    </rdf:RDF>
  </metadata>
  <g
     inkscape:label="0"
     id="g145881"
     transform="translate(3.0705811,156.18135)"
     style="fill:none;stroke:#000000;stroke-opacity:1" />
  <g
     inkscape:label="0"
     id="g101677"
     transform="translate(1.2170305,155.38115)"
     style="fill:none;stroke:#000000;stroke-opacity:1" />
  <g
     transform="translate(-1.147247,152.76995)"
     id="g73486"
     style="stroke:#000000;stroke-opacity:1;fill:none" />
  <g
     transform="translate(2.7720772,156.87255)"
     id="g44243"
     style="fill:none;stroke:#000000;stroke-opacity:1" />
  <g
     id="g1588"
     transform="matrix(-10,0,0,-10,416.33612,379.655)"
     style="fill:none;stroke:#000000;stroke-opacity:1">
    <path
       id="path1550"
       transform="matrix(1,0,0,-1,1,10)"
       shaper:pathType="exterior"
       shaper:cutDepth="0"
       d="M 0,10 A 1,1 90 0 1 -1,9 V 1 A 1,1 -180 0 1 0,0 h 12 a 1,1 -90 0 1 1,1 v 8 a 1,1 0 0 1 -1,1 z"
       inkscape:connector-curvature="0"
       style="vector-effect:non-scaling-stroke;fill:none;stroke:#000000;stroke-opacity:1" />
    <path
       id="path1552"
       transform="matrix(1,0,0,-1,1,10)"
       shaper:pathType="exterior"
       shaper:cutDepth="0"
       d="m 1.3417454,9.0149595 v 0 l 0.050903,0.020264 v 0 l 0.022827,0.054199 H 1.2707005 v 0 l 0.016602,-0.049072 v 0 l 0.024228,-0.019098 z"
       inkscape:connector-curvature="0"
       style="vector-effect:non-scaling-stroke;fill:none;stroke:#ff0000;stroke-opacity:1" />
    <path
       id="path1554"
       transform="matrix(1,0,0,-1,1,10)"
       shaper:pathType="interior"
       shaper:cutDepth="0"
       d="m 1.175,5.7291796 a 0.7,0.7 -106.60155 0 0 0,1.3416408 V 7.9 h 5.9 V 7.0708204 a 0.7,0.7 73.39845 0 0 0,-1.3416408 V 5.1 h 3.75 V 4.2708204 a 0.7,0.7 73.39845 0 0 0,-1.3416408 V 2.1 h -5.9 v 0.8291796 a 0.7,0.7 -106.60155 0 0 0,1.3416408 V 4.9 h -3.75 z"
       inkscape:connector-curvature="0"
       style="vector-effect:non-scaling-stroke;fill:none;stroke:#000000;stroke-width:2;stroke-opacity:1" />
    <path
       id="path1556"
       transform="matrix(1,0,0,-1,1,10)"
       shaper:pathType="interior"
       shaper:cutDepth="0"
       d="m 12.303553,0.6464466 a 0.05,0.05 0 1 1 0.1,0 0.05,0.05 0 1 1 -0.1,0 z"
       inkscape:connector-curvature="0"
       style="vector-effect:non-scaling-stroke;fill:none;stroke:#000000;stroke-width:2;stroke-opacity:1" />
    <path
       id="path1558"
       transform="matrix(1,0,0,-1,1,10)"
       shaper:pathType="interior"
       shaper:cutDepth="0"
       d="m -0.4035534,9.3535534 a 0.05,0.05 0 1 1 0.1,0 0.05,0.05 0 1 1 -0.1,0 z"
       inkscape:connector-curvature="0"
       style="vector-effect:non-scaling-stroke;fill:none;stroke:#000000;stroke-width:2;stroke-opacity:1" />
    <path
       id="path1560"
       transform="matrix(1,0,0,-1,1,10)"
       shaper:pathType="interior"
       shaper:cutDepth="0"
       d="m 12.303553,9.3535534 a 0.05,0.05 0 1 1 0.1,0 0.05,0.05 0 1 1 -0.1,0 z"
       inkscape:connector-curvature="0"
       style="vector-effect:non-scaling-stroke;fill:none;stroke:#000000;stroke-width:2;stroke-opacity:1" />
    <path
       id="path1562"
       transform="matrix(1,0,0,-1,1,10)"
       shaper:pathType="interior"
       shaper:cutDepth="0"
       d="m -0.4035534,0.6464466 a 0.05,0.05 0 1 1 0.1,0 0.05,0.05 0 1 1 -0.1,0 z"
       inkscape:connector-curvature="0"
       style="vector-effect:non-scaling-stroke;fill:none;stroke:#000000;stroke-width:2;stroke-opacity:1" />
    <path
       id="path1564"
       transform="matrix(1,0,0,-1,1,10)"
       shaper:pathType="interior"
       shaper:cutDepth="0"
       d="m 1.7592259,8.9627134 v 0.28125 h 0.04541 V 8.8860533 H 1.7560521 L 1.5680638,9.1670591 V 8.8860533 h -0.04541 v 0.3579101 h 0.048584 z"
       inkscape:connector-curvature="0"
       style="vector-effect:non-scaling-stroke;fill:none;stroke:#ff0000;stroke-width:2;stroke-opacity:1" />
    <path
       id="path1566"
       transform="matrix(1,0,0,-1,1,10)"
       shaper:pathType="interior"
       shaper:cutDepth="0"
       d="m 1.1271458,9.1082213 v 0.1357421 h 0.043945 V 8.9846861 h -0.039551 v 0.039307 0 l -0.027954,-0.036377 v 0 l -0.028198,-0.00879 v 0 l -0.045166,0.01416 0.015137,0.040771 v 0 l 0.032227,-0.00952 v 0 l 0.025879,0.00867 v 0 l 0.016357,0.024048 v 0 z"
       inkscape:connector-curvature="0"
       style="vector-effect:non-scaling-stroke;fill:none;stroke:#ff0000;stroke-width:2;stroke-opacity:1" />
    <path
       id="path1568"
       transform="matrix(1,0,0,-1,1,10)"
       shaper:pathType="interior"
       shaper:cutDepth="0"
       d="m 1.3395481,9.21369 v 0 l -0.04126,-0.012695 v 0 l -0.0271,-0.040527 -0.04541,0.00562 v 0 l 0.01465,0.034307 0.025144,0.027461 v 0 l 0.035227,0.017127 0.038992,0.00485 v 0 l 0.048931,-0.00794 0.041279,-0.027089 v 0 l 0.026259,-0.045722 0.00707,-0.052545 v 0 l -0.00709,-0.054182 -0.026605,-0.04738 v 0 l -0.039731,-0.027531 -0.047671,-0.0086 v 0 l -0.046369,0.00848 -0.038592,0.026916 v 0 l -0.026038,0.046481 -0.00692,0.053128 v 0 l 2.441e-4,0.011719 h 0.1933594 v 0 l -0.00623,0.034981 -0.017944,0.030449 v 0 l -0.024664,0.017134 z"
       inkscape:connector-curvature="0"
       style="vector-effect:non-scaling-stroke;fill:none;stroke:#ff0000;stroke-width:2;stroke-opacity:1" />
  </g>
  <g
     id="g1691"
     transform="matrix(-9.9999998,0,0,-9.9999998,410.10503,274.86998)"
     style="fill:none;stroke:#000000;stroke-opacity:1">
    <path
       id="path1668"
       transform="matrix(1,0,0,-1,4.25,6.8)"
       shaper:pathType="exterior"
       shaper:cutDepth="0"
       d="m -3.75,5.7746794 a 1.2,1.2 125.68533 0 1 0,-1.9493588 V 2.8 h 3.5555728 A 1.2,1.2 138.18969 0 1 0,1.0253206 V 0 h 6.9 v 1.0253206 a 1.2,1.2 -54.314665 0 1 0,1.9493588 V 4 H 3.3444272 A 1.2,1.2 -41.810315 0 1 3.15,5.7746794 V 6.8 h -6.9 z"
       inkscape:connector-curvature="0"
       style="vector-effect:non-scaling-stroke;fill:none;stroke:#000000;stroke-opacity:1" />
    <path
       id="path1670"
       transform="matrix(1,0,0,-1,4.25,6.8)"
       shaper:pathType="exterior"
       shaper:cutDepth="0"
       d="m -3.0612008,6.2554839 v 0 l 0.050903,0.020264 v 0 l 0.022827,0.054199 h -0.1447754 v 0 l 0.016601,-0.049072 v 0 l 0.024228,-0.019098 z"
       inkscape:connector-curvature="0"
       style="vector-effect:non-scaling-stroke;fill:none;stroke:#ff0000;stroke-opacity:1" />
    <path
       id="path1672"
       transform="matrix(1,0,0,-1,4.25,6.8)"
       shaper:pathType="interior"
       shaper:cutDepth="0"
       d="m -2.6437203,6.2032378 v 0.28125 h 0.04541 V 6.1265776 h -0.048584 L -2.8348825,6.4075835 V 6.1265776 h -0.04541 v 0.3579102 h 0.048584 z"
       inkscape:connector-curvature="0"
       style="vector-effect:non-scaling-stroke;fill:none;stroke:#ff0000;stroke-width:2;stroke-opacity:1" />
    <path
       id="path1674"
       transform="matrix(1,0,0,-1,4.25,6.8)"
       shaper:pathType="interior"
       shaper:cutDepth="0"
       d="m -3.2758004,6.3487456 v 0.1357422 h 0.043945 V 6.2252104 h -0.039551 v 0.039307 0 L -3.29936,6.2281401 v 0 l -0.028198,-0.00879 v 0 l -0.045166,0.01416 0.015137,0.040771 v 0 l 0.032227,-0.00952 v 0 l 0.025879,0.00867 v 0 l 0.016358,0.024048 v 0 z"
       inkscape:connector-curvature="0"
       style="vector-effect:non-scaling-stroke;fill:none;stroke:#ff0000;stroke-width:2;stroke-opacity:1" />
    <path
       id="path1676"
       transform="matrix(1,0,0,-1,4.25,6.8)"
       shaper:pathType="interior"
       shaper:cutDepth="0"
       d="m -3.0633981,6.4542144 v 0 l -0.04126,-0.012695 v 0 l -0.0271,-0.040527 -0.04541,0.00562 v 0 l 0.01465,0.034307 0.025145,0.027461 v 0 l 0.035227,0.017127 0.038992,0.00485 v 0 l 0.048931,-0.00794 0.041279,-0.027089 v 0 l 0.026259,-0.045722 0.00707,-0.052545 v 0 l -0.00709,-0.054182 -0.026605,-0.04738 v 0 l -0.039731,-0.027531 -0.047671,-0.0086 v 0 l -0.046369,0.00848 -0.038592,0.026916 v 0 l -0.026038,0.046481 -0.00692,0.053128 v 0 l 2.442e-4,0.011719 h 0.1933594 v 0 l -0.00623,0.034981 -0.017944,0.030449 v 0 l -0.024664,0.017134 z"
       inkscape:connector-curvature="0"
       style="vector-effect:non-scaling-stroke;fill:none;stroke:#ff0000;stroke-width:2;stroke-opacity:1" />
  </g>
</svg>
