<?xml version="1.0" encoding="utf-8"?>
<!-- Generator: Fusion 360, Shaper Origin Export Add-In, Version 1.4.1  -->
<svg enable-background="new 0 0 14 10" height="10cm" shaper:fusionaddin="version:1.4.1" version="1.1" viewBox="0 0 14 10" width="14cm" x="0cm" xml:space="preserve" xmlns="http://www.w3.org/2000/svg" xmlns:shaper="http://www.shapertools.com/namespaces/shaper" xmlns:xlink="http://www.w3.org/1999/xlink" y="0cm"><path d="M0,10 A1,1 90 0,1 -1,9 L-1,1 A1,1 180 0,1 -0,-0 L12,0 A1,1 270 0,1 13,1 L13,9 A1,1 0 0,1 12,10 L0,10z" fill="rgb(0,0,0)" shaper:cutDepth="0" shaper:pathType="exterior" transform="matrix(1,0,0,-1,1,10)" vector-effect="non-scaling-stroke" /><path d="M1.3417454,9.0149595 L1.3417454,9.0149595 1.3926487,9.0352232 1.3926487,9.0352232 1.4154759,9.0894224 1.2707005,9.0894224 1.2707005,9.0894224 1.2873021,9.0403502 1.2873021,9.0403502 1.3115296,9.0212518 1.3417454,9.0149595z" fill="rgb(0,0,0)" shaper:cutDepth="0" shaper:pathType="exterior" transform="matrix(1,0,0,-1,1,10)" vector-effect="non-scaling-stroke" /><path d="M1.175,5.7291796 A0.7,0.7 253.3984503 0,0 1.175,7.0708204 L1.175,7.9 7.075,7.9 7.075,7.0708204 A0.7,0.7 73.3984503 0,0 7.075,5.7291796 L7.075,5.1 10.825,5.1 10.825,4.2708204 A0.7,0.7 73.3984503 0,0 10.825,2.9291796 L10.825,2.1 4.925,2.1 4.925,2.9291796 A0.7,0.7 253.3984503 0,0 4.925,4.2708204 L4.925,4.9 1.175,4.9 1.175,5.7291796z" fill="rgb(255,255,255)" shaper:cutDepth="0" shaper:pathType="interior" stroke="rgb(0,0,0)" stroke-width="2" transform="matrix(1,0,0,-1,1,10)" vector-effect="non-scaling-stroke" /><path d="M12.3035534,0.6464466 a0.05,0.05 0 1,1 0.1,0 a0.05,0.05 0 1,1 -0.1,0z" fill="rgb(255,255,255)" shaper:cutDepth="0" shaper:pathType="interior" stroke="rgb(0,0,0)" stroke-width="2" transform="matrix(1,0,0,-1,1,10)" vector-effect="non-scaling-stroke" /><path d="M-0.4035534,9.3535534 a0.05,0.05 0 1,1 0.1,0 a0.05,0.05 0 1,1 -0.1,0z" fill="rgb(255,255,255)" shaper:cutDepth="0" shaper:pathType="interior" stroke="rgb(0,0,0)" stroke-width="2" transform="matrix(1,0,0,-1,1,10)" vector-effect="non-scaling-stroke" /><path d="M12.3035534,9.3535534 a0.05,0.05 0 1,1 0.1,0 a0.05,0.05 0 1,1 -0.1,0z" fill="rgb(255,255,255)" shaper:cutDepth="0" shaper:pathType="interior" stroke="rgb(0,0,0)" stroke-width="2" transform="matrix(1,0,0,-1,1,10)" vector-effect="non-scaling-stroke" /><path d="M-0.4035534,0.6464466 a0.05,0.05 0 1,1 0.1,0 a0.05,0.05 0 1,1 -0.1,0z" fill="rgb(255,255,255)" shaper:cutDepth="0" shaper:pathType="interior" stroke="rgb(0,0,0)" stroke-width="2" transform="matrix(1,0,0,-1,1,10)" vector-effect="non-scaling-stroke" /><path d="M1.7592259,8.9627134 L1.7592259,9.2439634 1.804636,9.2439634 1.804636,8.8860533 1.7560521,8.8860533 1.5680638,9.1670591 1.5680638,8.8860533 1.5226536,8.8860533 1.5226536,9.2439634 1.5712376,9.2439634 1.7592259,8.9627134z" fill="rgb(255,255,255)" shaper:cutDepth="0" shaper:pathType="interior" stroke="rgb(0,0,0)" stroke-width="2" transform="matrix(1,0,0,-1,1,10)" vector-effect="non-scaling-stroke" /><path d="M1.1271458,9.1082213 L1.1271458,9.2439634 1.1710911,9.2439634 1.1710911,8.9846861 1.1315403,8.9846861 1.1315403,9.0239927 1.1315403,9.0239927 1.1035862,8.9876158 1.1035862,8.9876158 1.075388,8.9788267 1.075388,8.9788267 1.030222,8.9929869 1.0453587,9.0337584 1.0453587,9.0337584 1.0775853,9.0242369 1.0775853,9.0242369 1.1034642,9.0329039 1.1034642,9.0329039 1.1198216,9.0569517 1.1198216,9.0569517 1.1271458,9.1082213z" fill="rgb(255,255,255)" shaper:cutDepth="0" shaper:pathType="interior" stroke="rgb(0,0,0)" stroke-width="2" transform="matrix(1,0,0,-1,1,10)" vector-effect="non-scaling-stroke" /><path d="M1.3395481,9.21369 L1.3395481,9.21369 1.2982884,9.2009947 1.2982884,9.2009947 1.2711888,9.1604674 1.2257786,9.1660826 1.2257786,9.1660826 1.240429,9.2003895 1.2655735,9.2278502 1.2655735,9.2278502 1.3008006,9.2449768 1.3397923,9.2498228 1.3397923,9.2498228 1.388723,9.2418781 1.4300022,9.2147886 1.4300022,9.2147886 1.4562616,9.1690671 1.4633274,9.116522 1.4633274,9.116522 1.4562412,9.0623399 1.429636,9.0149595 1.429636,9.0149595 1.3899047,8.9874288 1.3422337,8.9788267 1.3422337,8.9788267 1.2958648,8.987311 1.2572728,9.0142271 1.2572728,9.0142271 1.2312352,9.0607082 1.2243138,9.1138365 1.2243138,9.1138365 1.2245579,9.1255552 1.4179173,9.1255552 1.4179173,9.1255552 1.4116914,9.1605361 1.3937474,9.1909849 1.3937474,9.1909849 1.3690831,9.2081188 1.3395481,9.21369z" fill="rgb(255,255,255)" shaper:cutDepth="0" shaper:pathType="interior" stroke="rgb(0,0,0)" stroke-width="2" transform="matrix(1,0,0,-1,1,10)" vector-effect="non-scaling-stroke" /></svg>